<svg width="60" height="42" viewBox="0 0 60 42" fill="none" xmlns="http://www.w3.org/2000/svg">
<path d="M15 39C15 40.6568 16.3432 42 18 42H57C58.6568 42 60 40.6568 60 39C60 37.3432 58.6568 36 57 36H18C16.3432 36 15 37.3433 15 39V39ZM57 24H3C1.3432 24 0 22.6567 0 21C0 19.3432 1.3432 18 3 18H57C58.6568 18 60 19.3432 60 21C60 22.6567 58.6568 24 57 24ZM57 6H30C28.3433 6 27 4.6568 27 3C27 1.34332 28.3433 -2.86102e-06 30 -2.86102e-06H57C58.6568 -2.86102e-06 60 1.34332 60 3C60 4.6568 58.6568 6 57 6Z" fill="white"/>
</svg>
