<svg width="100" height="100" viewBox="0 0 100 100" fill="none" xmlns="http://www.w3.org/2000/svg">
<path d="M62.8906 48.1524L50 61.043L37.1094 48.1524C36.741 47.7966 36.2476 47.5997 35.7355 47.6042C35.2234 47.6086 34.7336 47.814 34.3714 48.1762C34.0093 48.5383 33.8039 49.0281 33.7995 49.5402C33.795 50.0524 33.9919 50.5457 34.3477 50.9141L47.6016 64.1699C48.2361 64.803 49.0958 65.1586 49.9922 65.1586C50.8885 65.1586 51.7483 64.803 52.3828 64.1699L65.6367 50.9141C65.9578 50.5414 66.1264 50.0612 66.1088 49.5696C66.0912 49.078 65.8888 48.6111 65.5419 48.2622C65.195 47.9134 64.7293 47.7083 64.2378 47.6879C63.7463 47.6676 63.2652 47.8334 62.8906 48.1524Z" fill="white"/>
<path d="M47.6094 51.4316C48.2439 52.0647 49.1037 52.4203 50 52.4203C50.8963 52.4203 51.7561 52.0647 52.3906 51.4316L65.6445 38.1758C65.9777 37.8042 66.1559 37.3191 66.1427 36.8202C66.1294 36.3213 65.9257 35.8463 65.5733 35.4929C65.2209 35.1395 64.7465 34.9344 64.2476 34.9198C63.7488 34.9051 63.2632 35.082 62.8906 35.4141L50 48.3047L37.1094 35.4141C36.9292 35.2275 36.7137 35.0787 36.4754 34.9764C36.2371 34.874 35.9808 34.8201 35.7215 34.8179C35.4622 34.8156 35.205 34.865 34.9649 34.9633C34.7249 35.0615 34.5068 35.2065 34.3234 35.3899C34.1401 35.5732 33.995 35.7913 33.8968 36.0314C33.7986 36.2714 33.7492 36.5286 33.7515 36.7879C33.7537 37.0472 33.8076 37.3035 33.91 37.5418C34.0123 37.7801 34.1611 37.9956 34.3477 38.1758L47.6094 51.4316Z" fill="white"/>
</svg>
